{
  "accessors": [
    {
      "bufferView": 2,
      "componentType": 5126,
      "count": 5363,
      "max": [
        124.55954742431641,
        589.58355712890625,
        124.55995178222656
      ],
      "min": [
        -124.55954742431641,
        110.91189575195312,
        -124.5599365234375
      ],
      "type": "VEC3"
    },
    {
      "bufferView": 2,
      "byteOffset": 64356,
      "componentType": 5126,
      "count": 5363,
      "max": [
        1,
        1,
        0.99999994039535522
      ],
      "min": [
        -1,
        -1,
        -1
      ],
      "type": "VEC3"
    },
    {
      "bufferView": 1,
      "componentType": 5126,
      "count": 5363,
      "max": [
        1,
        1
      ],
      "min": [
        0,
        -7.4505805969238281e-08
      ],
      "type": "VEC2"
    },
    {
      "bufferView": 0,
      "componentType": 5125,
      "count": 27144,
      "max": [
        5362
      ],
      "min": [
        0
      ],
      "type": "SCALAR"
    },
    {
      "bufferView": 2,
      "byteOffset": 128712,
      "componentType": 5126,
      "count": 580,
      "max": [
        25.836755752563477,
        259.839599609375,
        25.836757659912109
      ],
      "min": [
        -25.836761474609375,
        200.27687072753906,
        -25.836769104003906
      ],
      "type": "VEC3"
    },
    {
      "bufferView": 2,
      "byteOffset": 135672,
      "componentType": 5126,
      "count": 580,
      "max": [
        0.99830681085586548,
        0.99313342571258545,
        0.99830681085586548
      ],
      "min": [
        -0.9983067512512207,
        -0.99997645616531372,
        -0.99830681085586548
      ],
      "type": "VEC3"
    },
    {
      "bufferView": 1,
      "byteOffset": 42904,
      "componentType": 5126,
      "count": 580,
      "max": [
        1,
        1
      ],
      "min": [
        0,
        0
      ],
      "type": "VEC2"
    },
    {
      "bufferView": 0,
      "byteOffset": 108576,
      "componentType": 5125,
      "count": 2160,
      "max": [
        579
      ],
      "min": [
        0
      ],
      "type": "SCALAR"
    },
    {
      "bufferView": 2,
      "byteOffset": 142632,
      "componentType": 5126,
      "count": 63,
      "max": [
        1,
        1,
        1.0000001192092896
      ],
      "min": [
        -1,
        -1,
        -1.0000004768371582
      ],
      "type": "VEC3"
    },
    {
      "bufferView": 2,
      "byteOffset": 143388,
      "componentType": 5126,
      "count": 63,
      "max": [
        1,
        1,
        1
      ],
      "min": [
        -1,
        0,
        -1
      ],
      "type": "VEC3"
    },
    {
      "bufferView": 1,
      "byteOffset": 47544,
      "componentType": 5126,
      "count": 63,
      "max": [
        0.65625,
        1
      ],
      "min": [
        0.34374997019767761,
        0.3125
      ],
      "type": "VEC2"
    },
    {
      "bufferView": 0,
      "byteOffset": 117216,
      "componentType": 5125,
      "count": 180,
      "max": [
        62
      ],
      "min": [
        0
      ],
      "type": "SCALAR"
    },
    {
      "bufferView": 2,
      "byteOffset": 144144,
      "componentType": 5126,
      "count": 455,
      "max": [
        2.0558242797851562,
        -1,
        2.0558338165283203
      ],
      "min": [
        -2.0558280944824219,
        -2.5640287399291992,
        -2.0558340549468994
      ],
      "type": "VEC3"
    },
    {
      "bufferView": 2,
      "byteOffset": 149604,
      "componentType": 5126,
      "count": 455,
      "max": [
        0.98270457983016968,
        0.99747508764266968,
        0.98270732164382935
      ],
      "min": [
        -0.98270314931869507,
        -1,
        -0.98270285129547119
      ],
      "type": "VEC3"
    },
    {
      "bufferView": 1,
      "byteOffset": 48048,
      "componentType": 5126,
      "count": 455,
      "max": [
        0.65625,
        0.3125
      ],
      "min": [
        0.34374997019767761,
        -7.4505805969238281e-08
      ],
      "type": "VEC2"
    },
    {
      "bufferView": 0,
      "byteOffset": 117936,
      "componentType": 5125,
      "count": 1020,
      "max": [
        454
      ],
      "min": [
        0
      ],
      "type": "SCALAR"
    },
    {
      "bufferView": 2,
      "byteOffset": 155064,
      "componentType": 5126,
      "count": 1475,
      "max": [
        2.8935942649841309,
        12.375982284545898,
        2.8935956954956055
      ],
      "min": [
        -2.8935942649841309,
        -1.0000038146972656,
        -2.8935956954956055
      ],
      "type": "VEC3"
    },
    {
      "bufferView": 2,
      "byteOffset": 172764,
      "componentType": 5126,
      "count": 1475,
      "max": [
        1,
        1,
        1
      ],
      "min": [
        -1,
        -1,
        -1
      ],
      "type": "VEC3"
    },
    {
      "bufferView": 1,
      "byteOffset": 51688,
      "componentType": 5126,
      "count": 1475,
      "max": [
        0.65625,
        1
      ],
      "min": [
        0.34374997019767761,
        -7.4505805969238281e-08
      ],
      "type": "VEC2"
    },
    {
      "bufferView": 0,
      "byteOffset": 122016,
      "componentType": 5125,
      "count": 8352,
      "max": [
        1474
      ],
      "min": [
        0
      ],
      "type": "SCALAR"
    }
  ],
  "asset": {
    "extras": {
      "author": "Maxwell Walton (https://sketchfab.com/MaxwellWalton)",
      "license": "CC-BY-4.0 (http://creativecommons.org/licenses/by/4.0/)",
      "source": "https://sketchfab.com/3d-models/bar-stool-635feda18d6b4296ac2b417cbff15afe",
      "title": "Bar Stool"
    },
    "generator": "Sketchfab-7.95.0",
    "version": "2.0"
  },
  "bufferViews": [
    {
      "buffer": 0,
      "byteLength": 155424,
      "byteOffset": 0,
      "name": "floatBufferViews",
      "target": 34963
    },
    {
      "buffer": 0,
      "byteLength": 63488,
      "byteOffset": 155424,
      "byteStride": 8,
      "name": "floatBufferViews",
      "target": 34962
    },
    {
      "buffer": 0,
      "byteLength": 190464,
      "byteOffset": 218912,
      "byteStride": 12,
      "name": "floatBufferViews",
      "target": 34962
    }
  ],
  "buffers": [
    {
      "byteLength": 409376,
      "uri": "scene.bin"
    }
  ],
  "materials": [
    {
      "doubleSided": true,
      "emissiveFactor": [
        0,
        0,
        0
      ],
      "name": "Metal",
      "pbrMetallicRoughness": {
        "baseColorFactor": [
          0.20676720000000001,
          0.2351152,
          0.2424,
          1
        ],
        "metallicFactor": 0,
        "roughnessFactor": 0.59999999999999998
      }
    },
    {
      "doubleSided": true,
      "emissiveFactor": [
        0,
        0,
        0
      ],
      "name": "Black",
      "pbrMetallicRoughness": {
        "baseColorFactor": [
          0.0088000000000000005,
          0.0088000000000000005,
          0.0088000000000000005,
          1
        ],
        "metallicFactor": 0,
        "roughnessFactor": 0.59999999999999998
      }
    },
    {
      "doubleSided": true,
      "emissiveFactor": [
        0,
        0,
        0
      ],
      "name": "Plastic",
      "pbrMetallicRoughness": {
        "baseColorFactor": [
          0.016400000000000001,
          0.080000000000000016,
          0.070215120000000006,
          1
        ],
        "metallicFactor": 0,
        "roughnessFactor": 0.59999999999999998
      }
    }
  ],
  "meshes": [
    {
      "name": "pCylinder3_Metal_0",
      "primitives": [
        {
          "attributes": {
            "NORMAL": 1,
            "POSITION": 0,
            "TEXCOORD_0": 2
          },
          "indices": 3,
          "material": 0,
          "mode": 4
        }
      ]
    },
    {
      "name": "pCylinder3_Black_0",
      "primitives": [
        {
          "attributes": {
            "NORMAL": 5,
            "POSITION": 4,
            "TEXCOORD_0": 6
          },
          "indices": 7,
          "material": 1,
          "mode": 4
        }
      ]
    },
    {
      "name": "pCylinder4_Metal_0",
      "primitives": [
        {
          "attributes": {
            "NORMAL": 9,
            "POSITION": 8,
            "TEXCOORD_0": 10
          },
          "indices": 11,
          "material": 0,
          "mode": 4
        }
      ]
    },
    {
      "name": "pCylinder4_Black_0",
      "primitives": [
        {
          "attributes": {
            "NORMAL": 13,
            "POSITION": 12,
            "TEXCOORD_0": 14
          },
          "indices": 15,
          "material": 1,
          "mode": 4
        }
      ]
    },
    {
      "name": "pCylinder5_Plastic_0",
      "primitives": [
        {
          "attributes": {
            "NORMAL": 17,
            "POSITION": 16,
            "TEXCOORD_0": 18
          },
          "indices": 19,
          "material": 2,
          "mode": 4
        }
      ]
    }
  ],
  "nodes": [
    {
      "children": [
        1
      ],
      "name": "RootNode (gltf orientation matrix)",
      "rotation": [
        -0.70710678118654746,
        -0,
        -0,
        0.70710678118654757
      ]
    },
    {
      "children": [
        2
      ],
      "name": "RootNode (model correction matrix)"
    },
    {
      "children": [
        3
      ],
      "matrix": [
        1,
        0,
        0,
        0,
        0,
        0,
        1,
        0,
        0,
        -1,
        0,
        0,
        0,
        0,
        0,
        1
      ],
      "name": "e523271bf9c44406a2e19001ca0693d3.fbx"
    },
    {
      "children": [
        4,
        7,
        10
      ],
      "name": "RootNode"
    },
    {
      "children": [
        5,
        6
      ],
      "matrix": [
        1,
        0,
        0,
        0,
        0,
        1,
        0,
        0,
        0,
        0,
        1,
        0,
        0,
        -51.898857116699219,
        0,
        1
      ],
      "name": "pCylinder3"
    },
    {
      "mesh": 0,
      "name": "pCylinder3_Metal_0"
    },
    {
      "mesh": 1,
      "name": "pCylinder3_Black_0"
    },
    {
      "children": [
        8,
        9
      ],
      "matrix": [
        2.8035521851055334,
        2.7383055354409382,
        0,
        0,
        -23.77788756664506,
        24.344452356346366,
        0,
        0,
        0,
        0,
        3.9189567565917969,
        0,
        36.514972686767578,
        533.48797607421875,
        0,
        1
      ],
      "name": "pCylinder4"
    },
    {
      "mesh": 2,
      "name": "pCylinder4_Metal_0"
    },
    {
      "mesh": 3,
      "name": "pCylinder4_Black_0"
    },
    {
      "children": [
        11
      ],
      "matrix": [
        58.375507354736328,
        0,
        0,
        0,
        0,
        12.380590438842773,
        0,
        0,
        0,
        0,
        58.375507354736328,
        0,
        0,
        545.1068115234375,
        0,
        1
      ],
      "name": "pCylinder5"
    },
    {
      "mesh": 4,
      "name": "pCylinder5_Plastic_0"
    }
  ],
  "scene": 0,
  "scenes": [
    {
      "name": "OSG_Scene",
      "nodes": [
        0
      ]
    }
  ]
}

